<svg width="800" height="800" viewBox="0 0 800 800" fill="none" xmlns="http://www.w3.org/2000/svg">
<path opacity="0.4" d="M703.003 716.667C703.003 726 695.67 733.333 686.337 733.333H113.672C104.339 733.333 97.0053 726 97.0053 716.667C97.0053 578.667 233.005 466.667 400.007 466.667C434.34 466.667 467.673 471.333 498.34 480.333C478.673 503.667 466.673 534 466.673 566.667C466.673 591.667 473.67 615.333 486.003 635.333C492.67 646.667 501.337 657 511.337 665.667C534.67 687 565.673 700 600.007 700C637.34 700 671.007 684.667 695.007 660C700.34 678 703.003 697 703.003 716.667Z" fill="black"/>
<path d="M699 477.667C675 450.333 639.333 433.333 600 433.333C562.667 433.333 528.667 448.667 504.333 473.667C481 497.667 466.667 530.667 466.667 566.667C466.667 591.667 473.667 615.333 486 635.333C492.667 646.667 501.333 657 511.333 665.667C534.667 687 565.667 700 600 700C648.667 700 691 674 714 635.333C721 624 726.333 611 729.333 597.667C732 587.667 733.333 577.333 733.333 566.667C733.333 532.667 720.333 501.333 699 477.667ZM650 591H625V617C625 630.667 613.667 642 600 642C586.333 642 575 630.667 575 617V591H550C536.333 591 525 579.667 525 566C525 552.333 536.333 541 550 541H575V517.333C575 503.667 586.333 492.333 600 492.333C613.667 492.333 625 503.667 625 517.333V541H650C663.667 541 675 552.333 675 566C675 579.667 663.667 591 650 591Z" fill="black"/>
<path d="M400 400C492.047 400 566.667 325.381 566.667 233.333C566.667 141.286 492.047 66.6666 400 66.6666C307.953 66.6666 233.333 141.286 233.333 233.333C233.333 325.381 307.953 400 400 400Z" fill="black"/>
</svg>
