<svg width="1411" height="600" viewBox="0 0 1411 600" fill="none" xmlns="http://www.w3.org/2000/svg">
<path d="M375 125L225 75L75 125V525L225 475L375 525L525 475V75L375 125Z" fill="#4BB8FF"/>
<path d="M225 75V475L375 525V125L225 75Z" fill="#6FC6FF"/>
<path d="M375 187.5C326.663 187.5 287.5 228.662 287.5 279.387C287.5 330.112 375 450 375 450C375 450 462.5 330.1 462.5 279.387C462.5 228.675 423.338 187.5 375 187.5Z" fill="white"/>
<path d="M337.5 275C337.5 284.946 341.451 294.484 348.484 301.517C355.516 308.549 365.054 312.5 375 312.5C384.946 312.5 394.484 308.549 401.516 301.517C408.549 294.484 412.5 284.946 412.5 275C412.5 265.054 408.549 255.516 401.516 248.483C394.484 241.451 384.946 237.5 375 237.5C365.054 237.5 355.516 241.451 348.484 248.483C341.451 255.516 337.5 265.054 337.5 275Z" fill="#6FC6FF"/>
<path d="M615.04 360V248H634.56L675.36 314.24L664.16 314.08L705.28 248H723.84V360H703.52V318.08C703.52 308.373 703.733 299.68 704.16 292C704.693 284.213 705.547 276.533 706.72 268.96L709.28 275.68L674.56 329.44H663.84L630.08 276.32L632.32 268.96C633.493 276.107 634.293 283.467 634.72 291.04C635.253 298.613 635.52 307.627 635.52 318.08V360H615.04ZM790.103 361.6C781.249 361.6 773.409 359.787 766.583 356.16C759.863 352.427 754.583 347.36 750.743 340.96C747.009 334.453 745.143 326.987 745.143 318.56C745.143 311.947 746.209 305.92 748.343 300.48C750.476 295.04 753.463 290.347 757.303 286.4C761.143 282.347 765.676 279.253 770.903 277.12C776.236 274.88 781.996 273.76 788.183 273.76C793.836 273.76 799.009 274.827 803.703 276.96C808.503 279.093 812.663 282.027 816.183 285.76C819.703 289.387 822.369 293.76 824.183 298.88C826.103 303.893 827.009 309.387 826.903 315.36L826.743 322.4H758.583L754.743 308.8H810.263L807.863 311.52V307.84C807.543 304.64 806.476 301.813 804.663 299.36C802.849 296.8 800.503 294.827 797.623 293.44C794.849 291.947 791.756 291.2 788.343 291.2C783.116 291.2 778.689 292.213 775.063 294.24C771.436 296.16 768.663 299.04 766.743 302.88C764.929 306.72 764.023 311.467 764.023 317.12C764.023 322.56 765.143 327.307 767.383 331.36C769.729 335.413 773.036 338.56 777.303 340.8C781.569 343.04 786.529 344.16 792.183 344.16C796.129 344.16 799.756 343.52 803.063 342.24C806.476 340.96 810.103 338.667 813.943 335.36L823.542 348.8C820.663 351.467 817.356 353.76 813.623 355.68C809.996 357.493 806.156 358.933 802.103 360C798.049 361.067 794.049 361.6 790.103 361.6ZM844.013 360V275.68H863.213L863.533 292.8L860.333 294.08C861.293 291.307 862.733 288.747 864.653 286.4C866.573 283.947 868.866 281.813 871.533 280C874.199 278.187 877.026 276.8 880.013 275.84C882.999 274.773 886.093 274.24 889.293 274.24C893.879 274.24 897.933 274.987 901.453 276.48C904.973 277.973 907.906 280.267 910.253 283.36C912.706 286.453 914.573 290.4 915.853 295.2L912.812 294.56L913.933 292C915.213 289.44 916.919 287.093 919.053 284.96C921.186 282.827 923.586 280.96 926.253 279.36C928.919 277.653 931.693 276.373 934.573 275.52C937.559 274.667 940.439 274.24 943.213 274.24C949.613 274.24 954.946 275.52 959.213 278.08C963.479 280.64 966.679 284.533 968.813 289.76C970.946 294.987 972.013 301.44 972.013 309.12V360H952.333V310.4C952.333 304 951.053 299.253 948.493 296.16C946.039 293.067 942.199 291.52 936.973 291.52C934.199 291.52 931.639 292 929.293 292.96C926.946 293.813 924.866 295.093 923.053 296.8C921.346 298.4 920.013 300.32 919.053 302.56C918.093 304.693 917.613 307.093 917.613 309.76V360H897.933V310.24C897.933 304.16 896.599 299.52 893.933 296.32C891.373 293.12 887.693 291.52 882.893 291.52C880.119 291.52 877.559 292 875.213 292.96C872.973 293.813 870.946 295.093 869.133 296.8C867.426 298.4 866.093 300.267 865.133 302.4C864.173 304.533 863.693 306.88 863.693 309.44V360H844.013ZM1032.26 361.6C1023.84 361.6 1016.32 359.733 1009.7 356C1003.09 352.16 997.864 346.933 994.024 340.32C990.29 333.707 988.424 326.187 988.424 317.76C988.424 309.333 990.29 301.813 994.024 295.2C997.864 288.587 1003.09 283.413 1009.7 279.68C1016.32 275.84 1023.84 273.92 1032.26 273.92C1040.58 273.92 1048.05 275.84 1054.66 279.68C1061.28 283.413 1066.45 288.587 1070.18 295.2C1074.02 301.813 1075.94 309.333 1075.94 317.76C1075.94 326.187 1074.02 333.707 1070.18 340.32C1066.45 346.933 1061.28 352.16 1054.66 356C1048.05 359.733 1040.58 361.6 1032.26 361.6ZM1032.26 344.16C1036.85 344.16 1040.96 343.04 1044.58 340.8C1048.21 338.453 1051.04 335.307 1053.06 331.36C1055.2 327.307 1056.21 322.773 1056.1 317.76C1056.21 312.64 1055.2 308.107 1053.06 304.16C1051.04 300.107 1048.21 296.96 1044.58 294.72C1040.96 292.48 1036.85 291.36 1032.26 291.36C1027.68 291.36 1023.52 292.533 1019.78 294.88C1016.16 297.12 1013.33 300.267 1011.3 304.32C1009.28 308.267 1008.26 312.747 1008.26 317.76C1008.26 322.773 1009.28 327.307 1011.3 331.36C1013.33 335.307 1016.16 338.453 1019.78 340.8C1023.52 343.04 1027.68 344.16 1032.26 344.16ZM1097.07 360V248H1116.59L1157.39 314.24L1146.19 314.08L1187.31 248H1205.87V360H1185.55V318.08C1185.55 308.373 1185.76 299.68 1186.19 292C1186.72 284.213 1187.58 276.533 1188.75 268.96L1191.31 275.68L1156.59 329.44H1145.87L1112.11 276.32L1114.35 268.96C1115.52 276.107 1116.32 283.467 1116.75 291.04C1117.28 298.613 1117.55 307.627 1117.55 318.08V360H1097.07ZM1280.77 360V306.08C1280.77 301.493 1279.23 297.92 1276.13 295.36C1273.15 292.693 1269.25 291.36 1264.45 291.36C1259.97 291.36 1255.92 292.267 1252.29 294.08C1248.67 295.787 1245.31 298.56 1242.21 302.4L1230.05 290.24C1235.07 284.907 1240.61 280.853 1246.69 278.08C1252.77 275.307 1259.33 273.92 1266.37 273.92C1273.09 273.92 1278.85 274.987 1283.65 277.12C1288.56 279.253 1292.35 282.453 1295.01 286.72C1297.68 290.88 1299.01 296 1299.01 302.08V360H1280.77ZM1256.77 361.6C1251.33 361.6 1246.48 360.533 1242.21 358.4C1237.95 356.267 1234.53 353.333 1231.97 349.6C1229.52 345.76 1228.29 341.28 1228.29 336.16C1228.29 331.68 1229.09 327.787 1230.69 324.48C1232.29 321.067 1234.64 318.24 1237.73 316C1240.93 313.76 1244.88 312.107 1249.57 311.04C1254.37 309.867 1259.87 309.28 1266.05 309.28H1290.21L1288.77 323.36H1264.93C1262.05 323.36 1259.49 323.627 1257.25 324.16C1255.01 324.693 1253.09 325.493 1251.49 326.56C1249.89 327.627 1248.72 328.907 1247.97 330.4C1247.23 331.787 1246.85 333.493 1246.85 335.52C1246.85 337.653 1247.39 339.52 1248.45 341.12C1249.52 342.613 1250.96 343.787 1252.77 344.64C1254.59 345.493 1256.72 345.92 1259.17 345.92C1262.69 345.92 1266 345.333 1269.09 344.16C1272.29 342.987 1275.12 341.333 1277.57 339.2C1280.03 337.067 1281.95 334.667 1283.33 332L1287.33 342.88C1285.09 346.613 1282.32 349.867 1279.01 352.64C1275.81 355.413 1272.29 357.6 1268.45 359.2C1264.72 360.8 1260.83 361.6 1256.77 361.6ZM1319.8 395.2V275.68H1339L1339.32 294.72L1335.96 293.28C1336.6 289.973 1338.41 286.88 1341.4 284C1344.39 281.12 1348.01 278.773 1352.28 276.96C1356.65 275.147 1361.19 274.24 1365.88 274.24C1373.35 274.24 1379.96 276.107 1385.72 279.84C1391.59 283.573 1396.17 288.747 1399.48 295.36C1402.89 301.867 1404.6 309.333 1404.6 317.76C1404.6 326.187 1402.95 333.707 1399.64 340.32C1396.33 346.827 1391.75 352 1385.88 355.84C1380.12 359.573 1373.56 361.44 1366.2 361.44C1361.29 361.44 1356.55 360.48 1351.96 358.56C1347.48 356.64 1343.69 354.133 1340.6 351.04C1337.51 347.947 1335.53 344.747 1334.68 341.44L1339.48 339.04V395.2H1319.8ZM1362.36 344C1366.84 344 1370.84 342.88 1374.36 340.64C1377.88 338.4 1380.65 335.307 1382.68 331.36C1384.71 327.413 1385.72 322.88 1385.72 317.76C1385.72 312.64 1384.71 308.16 1382.68 304.32C1380.76 300.373 1378.04 297.28 1374.52 295.04C1371 292.693 1366.95 291.52 1362.36 291.52C1357.67 291.52 1353.56 292.64 1350.04 294.88C1346.52 297.12 1343.75 300.213 1341.72 304.16C1339.69 308.107 1338.68 312.64 1338.68 317.76C1338.68 322.88 1339.69 327.413 1341.72 331.36C1343.75 335.307 1346.52 338.4 1350.04 340.64C1353.56 342.88 1357.67 344 1362.36 344Z" fill="url(#paint0_linear_20_54)"/>
<defs>
<linearGradient id="paint0_linear_20_54" x1="600" y1="300" x2="1411" y2="300" gradientUnits="userSpaceOnUse">
<stop stop-color="#4BB8FF"/>
<stop offset="1" stop-color="#6FC6FF"/>
</linearGradient>
</defs>
</svg>
