<svg width="800" height="800" viewBox="0 0 800 800" fill="none" xmlns="http://www.w3.org/2000/svg">
<path d="M769.231 153.846C769.231 120 741.538 92.3077 707.692 92.3077H92.3077C58.4615 92.3077 30.7692 120 30.7692 153.846V646.154C30.7692 680 58.4615 707.692 92.3077 707.692H707.692C741.538 707.692 769.231 680 769.231 646.154V153.846ZM609.231 584.615H163.077C144.615 584.615 133.846 564.615 143.077 549.231L278.462 313.846C284.615 303.077 298.462 303.077 304.615 313.846L386.154 453.846C392.308 463.077 406.154 464.615 412.308 455.385L478.462 360C484.615 350.769 498.462 350.769 504.615 360L626.154 553.846C635.385 567.692 626.154 584.615 609.231 584.615ZM569.231 307.692C535.385 307.692 507.692 280 507.692 246.154C507.692 212.308 535.385 184.615 569.231 184.615C603.077 184.615 630.769 212.308 630.769 246.154C630.769 280 603.077 307.692 569.231 307.692Z" fill="black"/>
</svg>
