<svg width="800" height="800" viewBox="0 0 800 800" fill="none" xmlns="http://www.w3.org/2000/svg">
<path d="M600 433.333C568.667 433.333 539.667 444.333 516.667 462.667C486 487 466.667 524.667 466.667 566.667C466.667 591.667 473.667 615.333 486 635.333C509 674 551.333 700 600 700C633.667 700 664.333 687.667 687.667 666.667C698 658 707 647.333 714 635.333C726.333 615.333 733.333 591.667 733.333 566.667C733.333 493 673.667 433.333 600 433.333ZM669 552.333L598 618C593.333 622.333 587 624.667 581 624.667C574.667 624.667 568.333 622.333 563.333 617.333L530.333 584.333C520.667 574.667 520.667 558.667 530.333 549C540 539.333 556 539.333 565.667 549L581.667 565L635 515.667C645 506.333 661 507 670.333 517C679.667 527 679 542.667 669 552.333Z" fill="black"/>
<path opacity="0.4" d="M703.003 716.667C703.003 726 695.67 733.333 686.337 733.333H113.672C104.339 733.333 97.0054 726 97.0054 716.667C97.0054 578.667 233.005 466.667 400.007 466.667C434.34 466.667 467.673 471.333 498.34 480.333C478.673 503.667 466.673 534 466.673 566.667C466.673 591.667 473.67 615.333 486.003 635.333C492.67 646.667 501.337 657 511.337 665.667C534.67 687 565.673 700 600.007 700C637.34 700 671.007 684.667 695.007 660C700.34 678 703.003 697 703.003 716.667Z" fill="black"/>
<path d="M400 400C492.047 400 566.667 325.381 566.667 233.333C566.667 141.286 492.047 66.6666 400 66.6666C307.953 66.6666 233.333 141.286 233.333 233.333C233.333 325.381 307.953 400 400 400Z" fill="black"/>
</svg>
