<svg width="40" height="40" viewBox="0 0 40 40" fill="none" xmlns="http://www.w3.org/2000/svg">
<circle cx="20.5" cy="20.5" r="16.5" fill="white"/>
<path fill-rule="evenodd" clip-rule="evenodd" d="M37 20.5C37 29.6126 29.6126 37 20.5 37C11.3873 37 4 29.6126 4 20.5C4 11.3873 11.3873 4 20.5 4C29.6126 4 37 11.3873 37 20.5ZM23.9808 14.591L26.4268 17.0393C28.0867 18.7007 28.9165 19.5314 28.7229 20.4269C28.5292 21.3225 27.4305 21.7354 25.2329 22.561L23.7114 23.1326C23.1228 23.3537 22.8286 23.4642 22.6014 23.6609C22.5021 23.747 22.413 23.8445 22.3363 23.9515C22.1612 24.1955 22.0777 24.4989 21.9107 25.1056C21.5311 26.4855 21.3413 27.1754 20.8892 27.4333C20.6988 27.542 20.4832 27.5991 20.2639 27.5988C19.7436 27.598 19.2381 27.0919 18.2271 26.08L17.447 25.2992L14.7762 27.9743C14.2933 28.4579 13.5097 28.4586 13.0261 27.9758C12.5424 27.4929 12.5418 26.7093 13.0246 26.2257L15.6967 23.5492C15.6971 23.5489 15.6964 23.5495 15.6967 23.5492L14.9603 22.81C13.9557 21.8043 13.4533 21.3016 13.4501 20.7843C13.4486 20.5607 13.5067 20.3408 13.6183 20.1469C13.8764 19.6989 14.5613 19.51 15.9311 19.1323C16.5388 18.9648 16.8427 18.881 17.087 18.7053C17.1966 18.6263 17.2962 18.5345 17.3838 18.4317C17.5792 18.2025 17.6877 17.9064 17.9047 17.3139L18.4558 15.8099C19.2699 13.5878 19.6771 12.4767 20.5751 12.2786C21.4728 12.0805 22.3089 12.9173 23.9808 14.591Z" fill="#32A5F5"/>
</svg>
