<svg width="800" height="800" viewBox="0 0 800 800" fill="none" xmlns="http://www.w3.org/2000/svg">
<path d="M702.007 394.003L696.673 386.67C687.34 375.337 676.34 366.337 663.673 359.67C646.673 350.003 627.34 345.003 607.34 345.003H192.34C172.34 345.003 153.34 350.003 136.007 359.67C123.007 366.67 111.34 376.337 101.673 388.337C82.6734 412.67 73.6734 442.67 76.6734 472.67L89.0067 628.337C93.3401 675.337 99.0067 733.337 204.673 733.337H595.34C701.007 733.337 706.34 675.337 711.007 628.003L723.34 473.003C726.34 445.003 719.007 417.003 702.007 394.003ZM479.673 578.003H320.007C307.007 578.003 296.673 567.337 296.673 554.67C296.673 542.003 307.007 531.337 320.007 531.337H479.673C492.673 531.337 503.007 542.003 503.007 554.67C503.007 567.67 492.673 578.003 479.673 578.003Z" fill="black"/>
<path opacity="0.4" d="M112.695 377C120.029 370.333 127.362 364.333 136.029 359.667C153.029 350 172.362 345 192.362 345H607.697C627.697 345 646.697 350 664.03 359.667C672.697 364.333 680.363 370.333 687.363 377.333V359.667V327.333C687.363 208.333 651.03 172 532.03 172H452.697C438.03 172 437.697 171.667 429.03 160.333L389.03 106.667C370.03 82 355.03 66.6667 307.362 66.6667H268.029C149.029 66.6667 112.695 103 112.695 222V360V377Z" fill="black"/>
</svg>
